<?xml version="1.0" encoding="utf-8"?>
<!-- Generator: Adobe Illustrator 25.0.1, SVG Export Plug-In . SVG Version: 6.00 Build 0)  -->
<svg version="1.1" id="Laag_1" xmlns="http://www.w3.org/2000/svg" xmlns:xlink="http://www.w3.org/1999/xlink" x="0px" y="0px"
	 viewBox="0 0 68 10" style="enable-background:new 0 0 68 10;" xml:space="preserve">
<style type="text/css">
	.st0{display:none;}
	.st1{display:inline;fill:#FF0000;}
	.st2{display:none;fill:#F2F2F2;enable-background:new    ;}
	.st3{font-family:'ProximaNova-Bold';}
	.st4{font-size:12px;}
	.st5{letter-spacing:1;}
	.st6{fill:#FFFFFF;}
</style>
<g class="st0">
	<rect class="st1" width="68" height="10"/>
</g>
<text transform="matrix(1 0 0 1 11.3115 9.1562)" class="st2 st3 st4 st5">DAVID</text>
<g>
	<path class="st6" d="M8.15,0.13h3.83c3.04,0,5.15,1.94,5.15,4.86c0,2.93-2.11,4.85-5.15,4.85H8.15V0.13z M11.98,8.02
		c1.92,0,3.04-1.38,3.04-3.03c0-1.72-1.05-3.04-3.04-3.04h-1.76v6.07H11.98z"/>
	<path class="st6" d="M27.22,8.17h-4.34l-0.61,1.67H20l3.76-9.71h2.59l3.74,9.71h-2.26L27.22,8.17z M23.44,6.37h3.22l-1.6-4.46
		L23.44,6.37z"/>
	<path class="st6" d="M32.2,0.13h2.36l2.69,7.47l2.68-7.47h2.36l-3.74,9.71h-2.59L32.2,0.13z"/>
	<path class="st6" d="M46.11,0.13h2.07v9.71h-2.07V0.13z"/>
	<path class="st6" d="M53.02,0.13h3.83c3.04,0,5.15,1.94,5.15,4.86c0,2.93-2.11,4.85-5.15,4.85h-3.83
		C53.02,9.84,53.02,0.13,53.02,0.13z M56.85,8.02c1.92,0,3.04-1.38,3.04-3.03c0-1.72-1.05-3.04-3.04-3.04h-1.76v6.07H56.85z"/>
</g>
</svg>
