<?xml version="1.0" encoding="utf-8"?>
<!-- Generator: Adobe Illustrator 25.3.0, SVG Export Plug-In . SVG Version: 6.00 Build 0)  -->
<svg version="1.1" id="Laag_1" xmlns="http://www.w3.org/2000/svg" xmlns:xlink="http://www.w3.org/1999/xlink" x="0px" y="0px"
	 viewBox="0 0 68 10" style="enable-background:new 0 0 68 10;" xml:space="preserve">
<style type="text/css">
	.st0{display:none;}
	.st1{display:inline;fill:#FF0000;}
	.st2{display:none;fill:#F2F2F2;enable-background:new    ;}
	.st3{font-family:'ProximaNova-Bold';}
	.st4{font-size:12px;}
</style>
<g class="st0">
	<rect class="st1" width="68" height="10"/>
</g>
<text transform="matrix(1 0 0 1 11.3115 9.1562)" class="st2 st3 st4">DAVID</text>
<g>
	<path d="M8.1,0.1H12c3,0,5.1,1.9,5.1,4.9c0,2.9-2.1,4.8-5.1,4.8H8.1V0.1z M12,8c1.9,0,3-1.4,3-3c0-1.7-1.1-3-3-3h-1.8V8H12z"/>
	<path d="M27.2,8.2h-4.3l-0.6,1.7H20l3.8-9.7h2.6l3.7,9.7h-2.3L27.2,8.2z M23.4,6.4h3.2l-1.6-4.5L23.4,6.4z"/>
	<path d="M32.2,0.1h2.4l2.7,7.5l2.7-7.5h2.4l-3.7,9.7H36L32.2,0.1z"/>
	<path d="M46.1,0.1h2.1v9.7h-2.1V0.1z"/>
	<path d="M53,0.1h3.8c3,0,5.2,1.9,5.2,4.9c0,2.9-2.1,4.8-5.2,4.8H53C53,9.8,53,0.1,53,0.1z M56.8,8c1.9,0,3-1.4,3-3c0-1.7-1-3-3-3
		h-1.8V8H56.8z"/>
</g>
</svg>
